{
  "accessors": [
    {
      "bufferView": 2,
      "componentType": 5126,
      "count": 1666,
      "max": [
        1.0441054105758667,
        1.0676944255828857,
        0.24293911457061768
      ],
      "min": [
        -1.0441054105758667,
        -1.0311871767044067,
        -0.06330034881830215
      ],
      "type": "VEC3"
    },
    {
      "bufferView": 2,
      "byteOffset": 19992,
      "componentType": 5126,
      "count": 1666,
      "max": [
        1.0,
        1.0,
        1.0
      ],
      "min": [
        -1.0,
        -1.0,
        -1.0
      ],
      "type": "VEC3"
    },
    {
      "bufferView": 1,
      "componentType": 5126,
      "count": 1666,
      "max": [
        1.0046226978302002,
        1.0
      ],
      "min": [
        -0.0046227616257965565,
        -0.004639442078769207
      ],
      "type": "VEC2"
    },
    {
      "bufferView": 0,
      "componentType": 5125,
      "count": 2952,
      "type": "SCALAR"
    },
    {
      "bufferView": 2,
      "byteOffset": 39984,
      "componentType": 5126,
      "count": 202,
      "max": [
        1.0134509801864624,
        1.0201765298843384,
        0.1797250658273697
      ],
      "min": [
        -1.0134509801864624,
        -1.0134509801864624,
        -8.629739750176668e-05
      ],
      "type": "VEC3"
    },
    {
      "bufferView": 2,
      "byteOffset": 42408,
      "componentType": 5126,
      "count": 202,
      "max": [
        0.9999876618385315,
        0.005694772582501173,
        0.3637273907661438
      ],
      "min": [
        -0.9999876618385315,
        -1.0,
        -0.3637281358242035
      ],
      "type": "VEC3"
    },
    {
      "bufferView": 1,
      "byteOffset": 13328,
      "componentType": 5126,
      "count": 202,
      "max": [
        1.0,
        1.0
      ],
      "min": [
        0.0,
        0.0
      ],
      "type": "VEC2"
    },
    {
      "bufferView": 0,
      "byteOffset": 11808,
      "componentType": 5125,
      "count": 378,
      "type": "SCALAR"
    }
  ],
  "asset": {
    "extras": {
      "author": "Askip Studio (https://sketchfab.com/askipstudiogaming)",
      "license": "SKETCHFAB Standard (https://sketchfab.com/licenses)",
      "source": "https://sketchfab.com/3d-models/book-c7b709a12af14ce490c72a52da132f7e",
      "title": "Book"
    },
    "generator": "Sketchfab-16.17.0",
    "version": "2.0"
  },
  "bufferViews": [
    {
      "buffer": 0,
      "byteLength": 13320,
      "name": "floatBufferViews",
      "target": 34963
    },
    {
      "buffer": 0,
      "byteLength": 14944,
      "byteOffset": 13320,
      "byteStride": 8,
      "name": "floatBufferViews",
      "target": 34962
    },
    {
      "buffer": 0,
      "byteLength": 44832,
      "byteOffset": 28264,
      "byteStride": 12,
      "name": "floatBufferViews",
      "target": 34962
    }
  ],
  "buffers": [
    {
      "byteLength": 73096,
      "uri": "scene.bin"
    }
  ],
  "materials": [
    {
      "doubleSided": true,
      "name": "Pages__0",
      "pbrMetallicRoughness": {
        "metallicFactor": 0.0,
        "roughnessFactor": 0.6
      }
    },
    {
      "doubleSided": true,
      "name": "Material.001",
      "pbrMetallicRoughness": {
        "baseColorFactor": [
          0.000808055,
          0.00662028,
          0.0309899,
          1.0
        ],
        "metallicFactor": 0.0,
        "roughnessFactor": 0.9984025334647948
      }
    }
  ],
  "meshes": [
    {
      "name": "Couverture_Material.001_0",
      "primitives": [
        {
          "attributes": {
            "NORMAL": 1,
            "POSITION": 0,
            "TEXCOORD_0": 2
          },
          "indices": 3,
          "material": 1,
          "mode": 4
        }
      ]
    },
    {
      "name": "Pages__0",
      "primitives": [
        {
          "attributes": {
            "NORMAL": 5,
            "POSITION": 4,
            "TEXCOORD_0": 6
          },
          "indices": 7,
          "material": 0,
          "mode": 4
        }
      ]
    }
  ],
  "nodes": [
    {
      "children": [
        1
      ],
      "matrix": [
        1.0,
        0.0,
        0.0,
        0.0,
        0.0,
        2.220446049250313e-16,
        -1.0,
        0.0,
        0.0,
        1.0,
        2.220446049250313e-16,
        0.0,
        0.0,
        0.0,
        0.0,
        1.0
      ],
      "name": "Sketchfab_model"
    },
    {
      "children": [
        2
      ],
      "matrix": [
        0.009999999776482582,
        0.0,
        0.0,
        0.0,
        0.0,
        0.0,
        0.009999999776482582,
        0.0,
        0.0,
        -0.009999999776482582,
        0.0,
        0.0,
        0.0,
        0.0,
        0.0,
        1.0
      ],
      "name": "livre.fbx"
    },
    {
      "children": [
        3,
        5
      ],
      "name": "RootNode"
    },
    {
      "children": [
        4
      ],
      "matrix": [
        146.81130981445313,
        0.0,
        0.0,
        0.0,
        0.0,
        -1.629206793918314e-05,
        -99.99999999999868,
        0.0,
        0.0,
        99.99999999999868,
        -1.629206793918314e-05,
        0.0,
        0.0,
        0.0,
        0.0,
        1.0
      ],
      "name": "Couverture"
    },
    {
      "mesh": 0,
      "name": "Couverture_Material.001_0"
    },
    {
      "children": [
        6
      ],
      "matrix": [
        146.81130981445313,
        0.0,
        9.748674901425647e-09,
        0.0,
        6.640275135305542e-09,
        -1.629206793918314e-05,
        -99.99999999999868,
        0.0,
        1.0818381374699722e-15,
        99.99999999999868,
        -1.629206793918314e-05,
        0.0,
        0.0,
        0.0,
        0.0,
        1.0
      ],
      "name": "Pages"
    },
    {
      "mesh": 1,
      "name": "Pages__0"
    }
  ],
  "scene": 0,
  "scenes": [
    {
      "name": "Sketchfab_Scene",
      "nodes": [
        0
      ]
    }
  ]
}
